<?xml version="1.0" encoding="UTF-8"?><!DOCTYPE svg PUBLIC "-//W3C//DTD SVG 1.1//EN" "http://www.w3.org/Graphics/SVG/1.1/DTD/svg11.dtd"><svg xmlns="http://www.w3.org/2000/svg"><symbol id="envelope" viewBox="0 0 485.411 485.411"><path d="M0 81.824v321.763h485.411V81.824H0zm242.708 198.702L43.612 105.691h398.187L242.708 280.526zm-79.311-37.877L23.867 365.178V120.119l139.53 122.53zm18.085 15.884l61.22 53.762 61.22-53.762L441.924 379.72H43.487l137.995-121.187zm140.526-15.878l139.535-122.536v245.059L322.008 242.655z"/></symbol><symbol id="flight" viewBox="0 0 300 300"><path d="M99.41 95.701l-3.415-12.779a191.492 191.492 0 0 0-21.841 7.277l4.929 12.274a178.713 178.713 0 0 1 20.327-6.772zm-39.696 15.94l-6.364-11.595a192.843 192.843 0 0 0-19.482 12.274l7.711 10.746a179.924 179.924 0 0 1 18.135-11.425zM0 143.421l10.054 8.593a177.975 177.975 0 0 1 14.888-15.422l-8.943-9.743A190.798 190.798 0 0 0 0 143.421zm285.464-5.323l-9.739 8.947a179.448 179.448 0 0 1 13.528 16.632L300 155.966a191.943 191.943 0 0 0-14.536-17.868zm-42.284-18.845a177.92 177.92 0 0 1 17.115 12.909l8.588-10.058a189.92 189.92 0 0 0-18.398-13.874l-7.305 11.023zm-12.644-22.566a191.219 191.219 0 0 0-21.186-9.029l-4.44 12.459a177.209 177.209 0 0 1 19.714 8.401l5.912-11.831zm-119.621 8.916l8.989.004 7.493-11.363 14.428.099-9.084 31.32v.741c0 3.955 3.218 7.175 7.173 7.175h13.032l20.681-38.354 15.984.529c8.273 0 15.005-6.492 15.005-14.467.004-3.919-1.594-7.59-4.497-10.334-2.817-2.663-6.545-4.133-10.665-4.133h-.013l-15.951.533-20.54-38.091-13.054-.004c-3.946.011-7.155 3.232-7.155 7.177v.738l9.011 31.07-14.489.126L119.9 57.23l-8.983.002c-3.69 0-6.69 3-6.69 6.688v34.996a6.692 6.692 0 0 0 6.688 6.687zm3.714-37.467h.004l7.067 10.691 33.877-.293-11.275-38.867h2.434l20.657 38.305 22.224-.743c1.281 0 2.471.459 3.353 1.29.8.756 1.239 1.737 1.239 2.766 0 2.242-2.063 4.063-4.424 4.065l-22.255-.736-20.796 38.559H144.3l11.35-39.138-33.83-.236-7.191 10.896V68.136zm56.676 88.483a118.576 118.576 0 0 0-26.309-2.974c-55.362 0-102.633 37.756-114.949 91.814a118.397 118.397 0 0 0-2.943 25.282h13.228c.057-5.262.5-10.546 1.36-15.818 7.438 1.907 15.1 4.966 17.562 6.975a141.01 141.01 0 0 1-.381 2.588c-.298 1.929-.619 4.063-.752 6.256h13.27c.139-1.499.375-3.079.553-4.241.245-1.594.487-3.181.639-4.715.822-8.306-8.597-14.948-27.96-19.76 10.651-36.33 39.447-63.355 75.16-72.107-1.968 3.805-3.553 8.513-4.215 14.469-.322 2.919-.741 5.555-1.109 7.876-1.481 9.36-3.013 19.039 9.644 24.673 7.098 3.17 12.064 3.695 16.052 4.111 1.94.203 3.65.384 5.467.849.641 2.149.317 7.4.187 9.499-.165 2.665-.333 5.385.481 7.607.809 4.541 4.166 18.924 15.305 31.734H181.5c-19.134-12.492-22.182-33.848-22.308-34.787l-.271-2.178c.026-.516.06-1.08.09-1.563.425-6.884 1.219-19.705-8.595-22.703-3.39-1.034-6.304-1.338-8.875-1.609-3.686-.388-6.867-.723-12.051-3.035-3.393-1.512-3.393-1.512-1.966-10.528.39-2.467.833-5.266 1.188-8.493 1.01-9.106 4.847-14.877 8.313-18.658 2.634-.196 5.29-.315 7.971-.315 7.814 0 15.677.888 23.373 2.641 27.292 6.218 50.531 22.689 65.43 46.378 10.098 16.057 15.532 34.128 16.059 52.605-1.1.721-2.469 1.481-3.941 2.246h17.174c-.123-21.726-6.241-43.04-18.096-61.89-16.782-26.676-42.952-45.226-73.69-52.229z"/></symbol><symbol id="idea" viewBox="0 0 257.949 257.949"><path d="M187.454 99.042c8.207-8.211 8.456-21.321.555-29.228-3.729-3.729-8.733-5.781-14.101-5.781-5.665 0-11.039 2.251-15.126 6.335l-16.674 17.818-61.146-18.303-13.127 13.133a9.443 9.443 0 0 0-2.795 6.739 9.44 9.44 0 0 0 2.8 6.732l.661.659 43.117 23.732-13.716 14.877c-.831.838-1.6 1.715-2.304 2.632l-19.718-5.103-9.122 9.126a8.74 8.74 0 0 0-2.581 6.225 8.74 8.74 0 0 0 2.581 6.223l.745.745 22.828 11.582.58.58 11.582 22.837.758.752a8.76 8.76 0 0 0 6.212 2.561h.002a8.738 8.738 0 0 0 6.221-2.577l9.122-9.126-5.204-20.121c.857-.67 1.68-1.393 2.462-2.169l14.959-13.793 23.926 43.477.668.666a9.46 9.46 0 0 0 6.726 2.784 9.478 9.478 0 0 0 6.732-2.786l13.131-13.138-18.422-61.561 17.507-16.376.161-.153zm-9.289-9.424l-23.404 21.889 18.508 61.854-3.974 3.977-28.824-52.376-27.46 25.315-.192.183a14.17 14.17 0 0 1-3.739 2.707l-4.83 2.376 4.896 18.929-7.393-14.575-3.562-3.558-14.569-7.391 18.618 4.819 2.35-4.907c.657-1.371 1.611-2.705 2.764-3.855l25.427-27.577-52.022-28.631 3.977-3.977 61.435 18.389 22.03-23.551c1.583-1.547 3.606-2.398 5.712-2.398 1.832 0 3.518.677 4.742 1.9 2.724 2.731 2.497 7.403-.49 10.458z"/><path d="M232.218 135.617l25.731-9.88-6.282-35.669-26.635-.461a103.12 103.12 0 0 0-12.657-22.687l12.873-23.219-27.744-23.28-20.132 16.301a102.635 102.635 0 0 0-24.956-9.318l-4.958-25.522h-36.222l-4.925 25.35a102.544 102.544 0 0 0-24.973 9.097L60.986 19.852 33.24 43.128l12.818 23.124a103.075 103.075 0 0 0-12.792 22.469l-26.97.472L0 124.862l25.676 9.851a103.172 103.172 0 0 0 4.455 24.365L8.967 177.475l18.111 31.366 26.9-9.265a103.682 103.682 0 0 0 18.303 15.289l-4.512 28.511 34.029 12.386 14.862-24.735c7.922.952 15.774.981 23.549.141l14.959 24.898 34.031-12.386-4.468-28.222a103.544 103.544 0 0 0 18.545-15.146l27.001 9.3 18.111-31.368-20.889-18.155a103.137 103.137 0 0 0 4.719-24.472zm-.738 45.451l-7.206 12.485-24.925-8.586-2.927 3.289a90.521 90.521 0 0 1-22.235 18.14l-3.924 2.273 4.168 26.307-13.544 4.929-13.854-23.06-4.38.668a90.836 90.836 0 0 1-28.339-.176l-4.426-.719-13.813 22.983-13.539-4.929 4.193-26.488-3.851-2.295a90.616 90.616 0 0 1-21.958-18.331l-2.927-3.353-24.914 8.582-7.206-12.481 19.694-17.119-1.541-4.263c-3.333-9.232-5.119-18.969-5.308-28.948l-.084-4.455-23.714-9.104 2.506-14.192 25.068-.434 1.552-4.281a89.891 89.891 0 0 1 15.038-26.439l2.844-3.472-11.834-21.344 11.039-9.263 18.858 15.27 3.935-2.27A89.408 89.408 0 0 1 113.11 39.36l4.47-.791 4.556-23.457h14.412l4.576 23.549 4.426.824a89.567 89.567 0 0 1 29.144 10.896l3.952 2.328 18.702-15.142 11.039 9.263-11.848 21.369 2.791 3.461a89.884 89.884 0 0 1 14.853 26.673l1.525 4.34 24.821.432 2.5 14.192-23.695 9.1-.123 4.407c-.28 10.006-2.171 19.771-5.626 29.027l-1.605 4.292 19.5 16.945z"/></symbol><symbol id="pdf" viewBox="0 0 58 58"><path d="M50.95 12.187l-.771-.771L40.084 1.321 39.313.55A1.891 1.891 0 0 0 37.985 0H8.963C7.777 0 6.5.916 6.5 2.926V56c0 .837.842 1.653 1.838 1.91.05.013.098.032.15.042.156.031.315.048.475.048h40.074c.16 0 .319-.017.475-.048.052-.01.1-.029.15-.042.996-.257 1.838-1.073 1.838-1.91V13.978c0-.767-.092-1.333-.55-1.791zM47.935 12H39.5V3.565L47.935 12zM8.963 56c-.071 0-.135-.026-.198-.049a.458.458 0 0 1-.265-.414V41h41v14.537a.46.46 0 0 1-.265.414c-.063.023-.127.049-.198.049H8.963zM8.5 39V2.926c0-.217.033-.926.463-.926h28.595a1.54 1.54 0 0 0-.058.391V14h11.609c.135 0 .264-.025.39-.058l.001.036V39h-41z"/><path d="M22.042 44.744a3.438 3.438 0 0 0-1.128-.615 4.067 4.067 0 0 0-1.271-.205h-2.898V54h1.641v-3.637h1.217c.528 0 1.012-.077 1.449-.232s.811-.374 1.121-.656c.31-.282.551-.631.725-1.046.173-.415.26-.877.26-1.388 0-.483-.103-.918-.308-1.306s-.475-.717-.808-.991zm-.622 3.329c-.101.278-.232.494-.396.649a1.499 1.499 0 0 1-.54.335 1.808 1.808 0 0 1-.595.103h-1.504v-3.992h1.23c.419 0 .756.066 1.012.198.255.132.453.296.595.492.141.196.234.401.28.615a2.8 2.8 0 0 1 .068.567c0 .411-.05.755-.15 1.033zM31.954 45.4c-.424-.446-.957-.805-1.6-1.073s-1.388-.403-2.235-.403h-3.035V54h3.814c.127 0 .323-.016.588-.048.264-.032.556-.104.875-.219.319-.114.649-.285.991-.513s.649-.54.923-.937.499-.889.677-1.477.267-1.297.267-2.126a5.06 5.06 0 0 0-.314-1.757 4.436 4.436 0 0 0-.951-1.523zm-1.196 6.33c-.492.711-1.294 1.066-2.406 1.066h-1.627v-7.629h.957c.784 0 1.422.103 1.914.308s.882.474 1.169.807.48.704.581 1.114c.1.41.15.825.15 1.244 0 1.349-.246 2.38-.738 3.09zm4.84 2.27h1.668v-4.539h4.211V48.34h-4.211v-3.172H41.9v-1.244h-6.302m2.83-20.963c-.919 0-2.047.12-3.358.358-1.83-1.942-3.74-4.778-5.088-7.562 1.337-5.629.668-6.426.373-6.802-.314-.4-.757-1.049-1.261-1.049-.211 0-.787.096-1.016.172-.576.192-.886.636-1.134 1.215-.707 1.653.263 4.471 1.261 6.643-.853 3.393-2.284 7.454-3.788 10.75-3.79 1.736-5.803 3.441-5.985 5.068-.066.592.074 1.461 1.115 2.242.285.213.619.326.967.326.875 0 1.759-.67 2.782-2.107.746-1.048 1.547-2.477 2.383-4.251 2.678-1.171 5.991-2.229 8.828-2.822 1.58 1.517 2.995 2.285 4.211 2.285.896 0 1.664-.412 2.22-1.191.579-.811.711-1.537.39-2.16-.385-.749-1.334-1.115-2.9-1.115zm-17.892 9.673c-.468-.359-.441-.601-.431-.692.062-.556.933-1.543 3.07-2.744-1.62 2.992-2.49 3.389-2.639 3.436zm8.2-22.922c.043-.014 1.045 1.101.096 3.216-1.426-1.459-.194-3.183-.096-3.216zm-2.067 16.026a71.291 71.291 0 0 0 2.674-7.564c1.123 2.018 2.472 3.976 3.822 5.544a49.812 49.812 0 0 0-6.496 2.02zm12.901-.479c-.308.431-.976.441-1.21.441-.533 0-.732-.317-1.547-.944a14.395 14.395 0 0 1 1.811-.108c.889 0 1.052.131 1.175.197-.022.071-.08.205-.229.414z"/></symbol><symbol id="pilot" viewBox="0 0 257.074 257.074"><path d="M178.397 170.714c-6.88-3.534-12.907-6.629-16.149-10.122l-.357-1.905c19.253-12.109 31.452-36.251 31.452-63.034 0-2.105-.108-4.179-.291-6.225 5.295-2.771 8.465-4.85 8.866-5.119a6.617 6.617 0 0 0 0-11.008c-.253-.17-1.603-1.056-3.888-2.381 5.784-6.128 9.038-13.244 9.038-21.047 0-3.653-2.89-6.611-6.545-6.611-3.686-.348-16.176-10.074-24.442-16.508C159.188 13.601 141.718 0 128.536 0c-13.601 0-31.205 13.775-48.234 27.096-8.515 6.662-20.181 15.79-23.686 16.165a6.614 6.614 0 0 0-6.613 6.613c0 7.803 3.254 14.921 9.04 21.049-2.284 1.325-3.633 2.211-3.886 2.381a6.612 6.612 0 0 0 0 11.008c.403.269 3.569 2.345 8.864 5.116a69.806 69.806 0 0 0-.291 6.227c0 26.781 12.199 50.925 31.456 63.034l-.357 1.905c-3.243 3.494-9.269 6.589-16.149 10.122-20.571 10.559-51.657 26.516-51.657 79.745a6.614 6.614 0 0 0 6.613 6.613h189.802a6.61 6.61 0 0 0 6.613-6.613c-.004-53.23-31.088-69.188-51.654-79.747zM64.021 54.556c6.093-2.828 13.744-8.685 24.431-17.044 13.1-10.248 31.042-24.285 40.084-24.285 8.641 0 26.43 13.85 39.421 23.964 10.995 8.562 18.849 14.54 25.083 17.392-1.223 3.556-3.829 6.9-7.521 9.926-12.139-5.522-30.056-11.787-50.524-12.922l23.395-17.126h-20.373l-9.71 5.544-10.019-5.544H98.683l23.395 17.126c-20.467 1.133-38.382 7.398-50.524 12.922-3.702-3.034-6.314-6.387-7.533-9.953zm64.515 10.067c23.525 0 44.435 8.359 56.152 14.183-11.718 5.826-32.629 14.183-56.152 14.183-23.525 0-44.435-8.357-56.149-14.183 11.716-5.826 32.627-14.183 56.149-14.183zm-6.394 178.663l5.953-18.869.439.439.441-.439 5.952 18.869h-12.785zm6.394-37.132l-9.093-9.095 9.093-9.095 9.093 9.095-9.093 9.095zm20.437 37.692l-9.454-29.97 16.817-16.817-27.799-27.797-27.797 27.797 16.815 16.815-9.457 29.973H40.435c2.299-39.811 25.474-51.71 44.283-61.367 9.029-4.636 16.828-8.639 21.596-15.038a6.6 6.6 0 0 0 1.195-2.727l1.545-8.22a6.608 6.608 0 0 0-3.507-7.12c-17.37-8.806-28.593-29.893-28.593-53.718 0-.071.007-.139.009-.212 13.202 5.418 31.359 10.773 51.573 10.773 20.212 0 38.367-5.354 51.573-10.771 0 .071.007.139.007.209 0 23.827-11.22 44.912-28.588 53.718a6.616 6.616 0 0 0-3.509 7.12l1.545 8.22a6.578 6.578 0 0 0 1.197 2.727c4.766 6.399 12.565 10.405 21.596 15.038 18.805 9.657 41.982 21.556 44.281 61.367h-67.665z"/></symbol><symbol id="takeoff" viewBox="0 0 512.001 512.001"><path d="M508.504 96.665l-2.904-6.226c-5.469-11.728-14.979-20.289-27.499-24.754-20.881-7.447-49.154-3.07-81.763 12.655a10.48 10.48 0 0 0-.494.255l-125.751 69.327-121.72-65.643a10.198 10.198 0 0 0-9.152-.266l-53.959 25.161a10.2 10.2 0 0 0-1.862 17.363l96.31 73.214-82.624 45.551-43.032-23.207a10.198 10.198 0 0 0-9.152-.266L8.097 236.992a10.2 10.2 0 0 0-1.862 17.363l78.33 59.545a41.562 41.562 0 0 0 25.183 8.509 41.652 41.652 0 0 0 17.62-3.919l40.216-18.753 320.135-153.072c9.607-4.48 17.084-11.647 21.056-20.182 4.393-9.437 4.296-20.027-.271-29.818zm-399.309 21.857l34.004-15.857 144.702 78.036-28.931 13.491-35.491-26.096c-4.538-3.336-10.921-2.363-14.259 2.176-3.336 4.538-2.363 10.921 2.176 14.259l26.503 19.487-10.063 4.693-118.641-90.189zm369.816 9.699L158.876 281.292l-40.126 18.711a21.194 21.194 0 0 1-21.839-2.342L32.03 248.34l16.852-7.859L92.3 263.897a10.201 10.201 0 0 0 9.766-.045l95.407-52.598 22.919 17.424a10.195 10.195 0 0 0 10.483 1.124l84.051-39.193a10.2 10.2 0 0 0 .531-18.221l-24.003-12.945 113.994-62.845c25.907-12.451 48.387-16.77 63.733-12.333l-37.621 18.811c-5.038 2.519-7.08 8.646-4.561 13.684a10.199 10.199 0 0 0 9.13 5.64 10.16 10.16 0 0 0 4.553-1.079l46.034-23.017c.129.256.276.496.399.758l2.904 6.226c5.031 10.791-2.737 19.075-11.008 22.933zM376.583 379.072H31.956c-5.633 0-10.199 4.566-10.199 10.199s4.566 10.199 10.199 10.199h344.627c5.633 0 10.199-4.566 10.199-10.199 0-5.632-4.566-10.199-10.199-10.199zm88.16 0h-36.638c-5.633 0-10.199 4.566-10.199 10.199s4.566 10.199 10.199 10.199h36.638c5.633 0 10.199-4.566 10.199-10.199 0-5.632-4.566-10.199-10.199-10.199zm-209.524 50.377H86.913c-5.633 0-10.199 4.566-10.199 10.199s4.566 10.199 10.199 10.199h168.305c5.633 0 10.199-4.566 10.199-10.199s-4.565-10.199-10.198-10.199z"/><path d="M87.202 154.149c-2.122-5.217-8.071-7.725-13.291-5.605l-67.552 27.48c-5.218 2.122-7.727 8.073-5.605 13.291a10.204 10.204 0 0 0 9.452 6.358c1.279 0 2.581-.243 3.84-.755l67.551-27.479c5.218-2.121 7.728-8.072 5.605-13.29z"/></symbol></svg>