<svg xmlns="http://www.w3.org/2000/svg" viewBox="0 0 300 300">
  <path d="M99.41 95.701l-3.415-12.779c-7.389 1.975-14.738 4.424-21.841 7.277l4.929 12.274c6.616-2.656 13.452-4.933 20.327-6.772zM59.714 111.641l-6.364-11.595c-6.703 3.681-13.257 7.81-19.482 12.274l7.711 10.746c5.797-4.155 11.897-7.999 18.135-11.425zM0 143.421l10.054 8.593c4.629-5.416 9.64-10.605 14.888-15.422l-8.943-9.743C10.358 132.025 4.975 137.599 0 143.421zM285.464 138.098l-9.739 8.947c4.823 5.251 9.373 10.848 13.528 16.632L300 155.966c-4.466-6.218-9.353-12.23-14.536-17.868zM243.18 119.253c5.932 3.935 11.694 8.28 17.115 12.909l8.588-10.058c-5.826-4.977-12.016-9.646-18.398-13.874l-7.305 11.023zM230.536 96.687c-6.834-3.415-13.958-6.452-21.186-9.029l-4.44 12.459c6.726 2.396 13.356 5.222 19.714 8.401l5.912-11.831zM110.915 105.603l8.989.004 7.493-11.363 14.428.099-9.084 31.32v.741c0 3.955 3.218 7.175 7.173 7.175h13.032l20.681-38.354 15.984.529c8.273 0 15.005-6.492 15.005-14.467.004-3.919-1.594-7.59-4.497-10.334-2.817-2.663-6.545-4.133-10.665-4.133h-.013l-15.951.533-20.54-38.091-13.054-.004c-3.946.011-7.155 3.232-7.155 7.177v.738l9.011 31.07-14.489.126L119.9 57.23l-8.983.002c-3.69 0-6.69 3-6.69 6.688v34.996c0 3.689 2.997 6.687 6.688 6.687zm3.714-37.467h.004l7.067 10.691 33.877-.293-11.275-38.867h2.434l20.657 38.305 22.224-.743c1.281 0 2.471.459 3.353 1.29.8.756 1.239 1.737 1.239 2.766 0 2.242-2.063 4.063-4.424 4.065l-22.255-.736-20.796 38.559H144.3l11.35-39.138-33.83-.236-7.191 10.896V68.136zM171.305 156.619c-8.657-1.973-17.507-2.974-26.309-2.974-55.362 0-102.633 37.756-114.949 91.814-1.913 8.403-2.87 16.866-2.943 25.282h13.228c.057-5.262.5-10.546 1.36-15.818 7.438 1.907 15.1 4.966 17.562 6.975-.115.853-.247 1.717-.381 2.588-.298 1.929-.619 4.063-.752 6.256h13.27c.139-1.499.375-3.079.553-4.241.245-1.594.487-3.181.639-4.715.822-8.306-8.597-14.948-27.96-19.76 10.651-36.33 39.447-63.355 75.16-72.107-1.968 3.805-3.553 8.513-4.215 14.469-.322 2.919-.741 5.555-1.109 7.876-1.481 9.36-3.013 19.039 9.644 24.673 7.098 3.17 12.064 3.695 16.052 4.111 1.94.203 3.65.384 5.467.849.641 2.149.317 7.4.187 9.499-.165 2.665-.333 5.385.481 7.607.809 4.541 4.166 18.924 15.305 31.734H181.5c-19.134-12.492-22.182-33.848-22.308-34.787l-.271-2.178c.026-.516.06-1.08.09-1.563.425-6.884 1.219-19.705-8.595-22.703-3.39-1.034-6.304-1.338-8.875-1.609-3.686-.388-6.867-.723-12.051-3.035-3.393-1.512-3.393-1.512-1.966-10.528.39-2.467.833-5.266 1.188-8.493 1.01-9.106 4.847-14.877 8.313-18.658 2.634-.196 5.29-.315 7.971-.315 7.814 0 15.677.888 23.373 2.641 27.292 6.218 50.531 22.689 65.43 46.378 10.098 16.057 15.532 34.128 16.059 52.605-1.1.721-2.469 1.481-3.941 2.246h17.174c-.123-21.726-6.241-43.04-18.096-61.89-16.782-26.676-42.952-45.226-73.69-52.229z"/>
</svg>