<svg xmlns="http://www.w3.org/2000/svg" viewBox="0 0 257.949 257.949">
  <path d="M187.454 99.042c8.207-8.211 8.456-21.321.555-29.228-3.729-3.729-8.733-5.781-14.101-5.781-5.665 0-11.039 2.251-15.126 6.335l-16.674 17.818-61.146-18.303-13.127 13.133c-1.803 1.799-2.797 4.19-2.795 6.739.002 2.544.994 4.936 2.8 6.732l.661.659 43.117 23.732-13.716 14.877c-.831.838-1.6 1.715-2.304 2.632l-19.718-5.103-9.122 9.126c-1.664 1.662-2.581 3.873-2.581 6.225 0 2.35.917 4.561 2.581 6.223l.745.745 22.828 11.582.58.58 11.582 22.837.758.752c1.664 1.653 3.871 2.561 6.212 2.561h.002c2.352 0 4.563-.917 6.221-2.577l9.122-9.126-5.204-20.121c.857-.67 1.68-1.393 2.462-2.169l14.959-13.793 23.926 43.477.668.666c1.797 1.794 4.186 2.784 6.726 2.784 2.535 0 4.922-.985 6.732-2.786l13.131-13.138-18.422-61.561 17.507-16.376.161-.153zm-9.289-9.424l-23.404 21.889 18.508 61.854-3.974 3.977-28.824-52.376-27.46 25.315-.192.183c-1.131 1.131-2.39 2.041-3.739 2.707l-4.83 2.376 4.896 18.929-7.393-14.575-3.562-3.558-14.569-7.391 18.618 4.819 2.35-4.907c.657-1.371 1.611-2.705 2.764-3.855l25.427-27.577-52.022-28.631 3.977-3.977 61.435 18.389 22.03-23.551c1.583-1.547 3.606-2.398 5.712-2.398 1.832 0 3.518.677 4.742 1.9 2.724 2.731 2.497 7.403-.49 10.458z"/>
  <path d="M232.218 135.617l25.731-9.88-6.282-35.669-26.635-.461c-3.247-8.068-7.486-15.666-12.657-22.687l12.873-23.219-27.744-23.28-20.132 16.301c-7.887-4.179-16.248-7.303-24.956-9.318l-4.958-25.522h-36.222l-4.925 25.35c-8.694 1.94-17.062 4.988-24.973 9.097L60.986 19.852 33.24 43.128l12.818 23.124c-5.202 6.944-9.488 14.472-12.792 22.469l-26.97.472L0 124.862l25.676 9.851c.511 8.326 2.004 16.489 4.455 24.365L8.967 177.475l18.111 31.366 26.9-9.265c5.511 5.8 11.641 10.918 18.303 15.289l-4.512 28.511 34.029 12.386 14.862-24.735c7.922.952 15.774.981 23.549.141l14.959 24.898 34.031-12.386-4.468-28.222c6.752-4.318 12.966-9.395 18.545-15.146l27.001 9.3 18.111-31.368-20.889-18.155c2.552-7.915 4.133-16.111 4.719-24.472zm-.738 45.451l-7.206 12.485-24.925-8.586-2.927 3.289c-6.408 7.199-13.89 13.299-22.235 18.14l-3.924 2.273 4.168 26.307-13.544 4.929-13.854-23.06-4.38.668c-9.252 1.404-18.797 1.387-28.339-.176l-4.426-.719-13.813 22.983-13.539-4.929 4.193-26.488-3.851-2.295c-8.231-4.9-15.62-11.066-21.958-18.331l-2.927-3.353-24.914 8.582-7.206-12.481 19.694-17.119-1.541-4.263c-3.333-9.232-5.119-18.969-5.308-28.948l-.084-4.455-23.714-9.104 2.506-14.192 25.068-.434 1.552-4.281c3.476-9.607 8.537-18.503 15.038-26.439l2.844-3.472-11.834-21.344 11.039-9.263 18.858 15.27 3.935-2.27c9.069-5.233 18.887-8.809 29.184-10.632l4.47-.791 4.556-23.457h14.412l4.576 23.549 4.426.824c10.314 1.918 20.119 5.584 29.144 10.896l3.952 2.328 18.702-15.142 11.039 9.263-11.848 21.369 2.791 3.461c6.459 8.022 11.456 16.993 14.853 26.673l1.525 4.34 24.821.432 2.5 14.192-23.695 9.1-.123 4.407c-.28 10.006-2.171 19.771-5.626 29.027l-1.605 4.292 19.5 16.945z"/>
</svg>