<svg xmlns="http://www.w3.org/2000/svg" viewBox="0 0 512.001 512.001">
  <path d="M508.504 96.665l-2.904-6.226c-5.469-11.728-14.979-20.289-27.499-24.754-20.881-7.447-49.154-3.07-81.763 12.655-.167.081-.331.165-.494.255l-125.751 69.327-121.72-65.643c-2.837-1.53-6.232-1.629-9.152-.266l-53.959 25.161c-3.238 1.51-5.45 4.604-5.831 8.156-.381 3.552 1.125 7.045 3.969 9.207l96.31 73.214-82.624 45.551-43.032-23.207c-2.837-1.53-6.232-1.629-9.152-.266L8.097 236.992c-3.238 1.51-5.45 4.604-5.831 8.156-.381 3.552 1.125 7.046 3.969 9.207l78.33 59.545c7.398 5.624 16.251 8.509 25.183 8.509 5.975 0 11.987-1.292 17.62-3.919l40.216-18.753 320.135-153.072c9.607-4.48 17.084-11.647 21.056-20.182 4.393-9.437 4.296-20.027-.271-29.818zm-399.309 21.857l34.004-15.857 144.702 78.036-28.931 13.491-35.491-26.096c-4.538-3.336-10.921-2.363-14.259 2.176-3.336 4.538-2.363 10.921 2.176 14.259l26.503 19.487-10.063 4.693-118.641-90.189zm369.816 9.699L158.876 281.292l-40.126 18.711c-7.17 3.344-15.539 2.447-21.839-2.342L32.03 248.34l16.852-7.859L92.3 263.897c3.051 1.646 6.728 1.628 9.766-.045l95.407-52.598 22.919 17.424c1.807 1.374 3.982 2.08 6.174 2.08 1.464 0 2.934-.315 4.309-.956l84.051-39.193c3.495-1.63 5.773-5.092 5.885-8.947.112-3.854-1.959-7.443-5.354-9.274l-24.003-12.945 113.994-62.845c25.907-12.451 48.387-16.77 63.733-12.333l-37.621 18.811c-5.038 2.519-7.08 8.646-4.561 13.684 1.787 3.574 5.389 5.64 9.13 5.64 1.532 0 3.089-.347 4.553-1.079l46.034-23.017c.129.256.276.496.399.758l2.904 6.226c5.031 10.791-2.737 19.075-11.008 22.933zM376.583 379.072H31.956c-5.633 0-10.199 4.566-10.199 10.199s4.566 10.199 10.199 10.199h344.627c5.633 0 10.199-4.566 10.199-10.199 0-5.632-4.566-10.199-10.199-10.199zM464.743 379.072h-36.638c-5.633 0-10.199 4.566-10.199 10.199s4.566 10.199 10.199 10.199h36.638c5.633 0 10.199-4.566 10.199-10.199 0-5.632-4.566-10.199-10.199-10.199zM255.219 429.449H86.913c-5.633 0-10.199 4.566-10.199 10.199s4.566 10.199 10.199 10.199h168.305c5.633 0 10.199-4.566 10.199-10.199s-4.565-10.199-10.198-10.199z"/>
  <path d="M87.202 154.149c-2.122-5.217-8.071-7.725-13.291-5.605l-67.552 27.48c-5.218 2.122-7.727 8.073-5.605 13.291 1.612 3.959 5.425 6.358 9.452 6.358 1.279 0 2.581-.243 3.84-.755l67.551-27.479c5.218-2.121 7.728-8.072 5.605-13.29z"/>
</svg>