<svg xmlns="http://www.w3.org/2000/svg" viewBox="0 0 257.949 257.949"><path d="M187.454 99.042c8.207-8.211 8.456-21.321.555-29.228-3.729-3.729-8.733-5.781-14.101-5.781-5.665 0-11.039 2.251-15.126 6.335l-16.674 17.818-61.146-18.303-13.127 13.133a9.443 9.443 0 0 0-2.795 6.739 9.44 9.44 0 0 0 2.8 6.732l.661.659 43.117 23.732-13.716 14.877c-.831.838-1.6 1.715-2.304 2.632l-19.718-5.103-9.122 9.126a8.74 8.74 0 0 0-2.581 6.225 8.74 8.74 0 0 0 2.581 6.223l.745.745 22.828 11.582.58.58 11.582 22.837.758.752a8.76 8.76 0 0 0 6.212 2.561h.002a8.738 8.738 0 0 0 6.221-2.577l9.122-9.126-5.204-20.121c.857-.67 1.68-1.393 2.462-2.169l14.959-13.793 23.926 43.477.668.666a9.46 9.46 0 0 0 6.726 2.784 9.478 9.478 0 0 0 6.732-2.786l13.131-13.138-18.422-61.561 17.507-16.376.161-.153zm-9.289-9.424l-23.404 21.889 18.508 61.854-3.974 3.977-28.824-52.376-27.46 25.315-.192.183a14.17 14.17 0 0 1-3.739 2.707l-4.83 2.376 4.896 18.929-7.393-14.575-3.562-3.558-14.569-7.391 18.618 4.819 2.35-4.907c.657-1.371 1.611-2.705 2.764-3.855l25.427-27.577-52.022-28.631 3.977-3.977 61.435 18.389 22.03-23.551c1.583-1.547 3.606-2.398 5.712-2.398 1.832 0 3.518.677 4.742 1.9 2.724 2.731 2.497 7.403-.49 10.458z"/><path d="M232.218 135.617l25.731-9.88-6.282-35.669-26.635-.461a103.12 103.12 0 0 0-12.657-22.687l12.873-23.219-27.744-23.28-20.132 16.301a102.635 102.635 0 0 0-24.956-9.318l-4.958-25.522h-36.222l-4.925 25.35a102.544 102.544 0 0 0-24.973 9.097L60.986 19.852 33.24 43.128l12.818 23.124a103.075 103.075 0 0 0-12.792 22.469l-26.97.472L0 124.862l25.676 9.851a103.172 103.172 0 0 0 4.455 24.365L8.967 177.475l18.111 31.366 26.9-9.265a103.682 103.682 0 0 0 18.303 15.289l-4.512 28.511 34.029 12.386 14.862-24.735c7.922.952 15.774.981 23.549.141l14.959 24.898 34.031-12.386-4.468-28.222a103.544 103.544 0 0 0 18.545-15.146l27.001 9.3 18.111-31.368-20.889-18.155a103.137 103.137 0 0 0 4.719-24.472zm-.738 45.451l-7.206 12.485-24.925-8.586-2.927 3.289a90.521 90.521 0 0 1-22.235 18.14l-3.924 2.273 4.168 26.307-13.544 4.929-13.854-23.06-4.38.668a90.836 90.836 0 0 1-28.339-.176l-4.426-.719-13.813 22.983-13.539-4.929 4.193-26.488-3.851-2.295a90.616 90.616 0 0 1-21.958-18.331l-2.927-3.353-24.914 8.582-7.206-12.481 19.694-17.119-1.541-4.263c-3.333-9.232-5.119-18.969-5.308-28.948l-.084-4.455-23.714-9.104 2.506-14.192 25.068-.434 1.552-4.281a89.891 89.891 0 0 1 15.038-26.439l2.844-3.472-11.834-21.344 11.039-9.263 18.858 15.27 3.935-2.27A89.408 89.408 0 0 1 113.11 39.36l4.47-.791 4.556-23.457h14.412l4.576 23.549 4.426.824a89.567 89.567 0 0 1 29.144 10.896l3.952 2.328 18.702-15.142 11.039 9.263-11.848 21.369 2.791 3.461a89.884 89.884 0 0 1 14.853 26.673l1.525 4.34 24.821.432 2.5 14.192-23.695 9.1-.123 4.407c-.28 10.006-2.171 19.771-5.626 29.027l-1.605 4.292 19.5 16.945z"/></svg>