<svg xmlns="http://www.w3.org/2000/svg" viewBox="0 0 257.074 257.074"><path d="M178.397 170.714c-6.88-3.534-12.907-6.629-16.149-10.122l-.357-1.905c19.253-12.109 31.452-36.251 31.452-63.034 0-2.105-.108-4.179-.291-6.225 5.295-2.771 8.465-4.85 8.866-5.119a6.617 6.617 0 0 0 0-11.008c-.253-.17-1.603-1.056-3.888-2.381 5.784-6.128 9.038-13.244 9.038-21.047 0-3.653-2.89-6.611-6.545-6.611-3.686-.348-16.176-10.074-24.442-16.508C159.188 13.601 141.718 0 128.536 0c-13.601 0-31.205 13.775-48.234 27.096-8.515 6.662-20.181 15.79-23.686 16.165a6.614 6.614 0 0 0-6.613 6.613c0 7.803 3.254 14.921 9.04 21.049-2.284 1.325-3.633 2.211-3.886 2.381a6.612 6.612 0 0 0 0 11.008c.403.269 3.569 2.345 8.864 5.116a69.806 69.806 0 0 0-.291 6.227c0 26.781 12.199 50.925 31.456 63.034l-.357 1.905c-3.243 3.494-9.269 6.589-16.149 10.122-20.571 10.559-51.657 26.516-51.657 79.745a6.614 6.614 0 0 0 6.613 6.613h189.802a6.61 6.61 0 0 0 6.613-6.613c-.004-53.23-31.088-69.188-51.654-79.747zM64.021 54.556c6.093-2.828 13.744-8.685 24.431-17.044 13.1-10.248 31.042-24.285 40.084-24.285 8.641 0 26.43 13.85 39.421 23.964 10.995 8.562 18.849 14.54 25.083 17.392-1.223 3.556-3.829 6.9-7.521 9.926-12.139-5.522-30.056-11.787-50.524-12.922l23.395-17.126h-20.373l-9.71 5.544-10.019-5.544H98.683l23.395 17.126c-20.467 1.133-38.382 7.398-50.524 12.922-3.702-3.034-6.314-6.387-7.533-9.953zm64.515 10.067c23.525 0 44.435 8.359 56.152 14.183-11.718 5.826-32.629 14.183-56.152 14.183-23.525 0-44.435-8.357-56.149-14.183 11.716-5.826 32.627-14.183 56.149-14.183zm-6.394 178.663l5.953-18.869.439.439.441-.439 5.952 18.869h-12.785zm6.394-37.132l-9.093-9.095 9.093-9.095 9.093 9.095-9.093 9.095zm20.437 37.692l-9.454-29.97 16.817-16.817-27.799-27.797-27.797 27.797 16.815 16.815-9.457 29.973H40.435c2.299-39.811 25.474-51.71 44.283-61.367 9.029-4.636 16.828-8.639 21.596-15.038a6.6 6.6 0 0 0 1.195-2.727l1.545-8.22a6.608 6.608 0 0 0-3.507-7.12c-17.37-8.806-28.593-29.893-28.593-53.718 0-.071.007-.139.009-.212 13.202 5.418 31.359 10.773 51.573 10.773 20.212 0 38.367-5.354 51.573-10.771 0 .071.007.139.007.209 0 23.827-11.22 44.912-28.588 53.718a6.616 6.616 0 0 0-3.509 7.12l1.545 8.22a6.578 6.578 0 0 0 1.197 2.727c4.766 6.399 12.565 10.405 21.596 15.038 18.805 9.657 41.982 21.556 44.281 61.367h-67.665z"/></svg>