<svg xmlns="http://www.w3.org/2000/svg" viewBox="0 0 512.001 512.001"><path d="M508.504 96.665l-2.904-6.226c-5.469-11.728-14.979-20.289-27.499-24.754-20.881-7.447-49.154-3.07-81.763 12.655a10.48 10.48 0 0 0-.494.255l-125.751 69.327-121.72-65.643a10.198 10.198 0 0 0-9.152-.266l-53.959 25.161a10.2 10.2 0 0 0-1.862 17.363l96.31 73.214-82.624 45.551-43.032-23.207a10.198 10.198 0 0 0-9.152-.266L8.097 236.992a10.2 10.2 0 0 0-1.862 17.363l78.33 59.545a41.562 41.562 0 0 0 25.183 8.509 41.652 41.652 0 0 0 17.62-3.919l40.216-18.753 320.135-153.072c9.607-4.48 17.084-11.647 21.056-20.182 4.393-9.437 4.296-20.027-.271-29.818zm-399.309 21.857l34.004-15.857 144.702 78.036-28.931 13.491-35.491-26.096c-4.538-3.336-10.921-2.363-14.259 2.176-3.336 4.538-2.363 10.921 2.176 14.259l26.503 19.487-10.063 4.693-118.641-90.189zm369.816 9.699L158.876 281.292l-40.126 18.711a21.194 21.194 0 0 1-21.839-2.342L32.03 248.34l16.852-7.859L92.3 263.897a10.201 10.201 0 0 0 9.766-.045l95.407-52.598 22.919 17.424a10.195 10.195 0 0 0 10.483 1.124l84.051-39.193a10.2 10.2 0 0 0 .531-18.221l-24.003-12.945 113.994-62.845c25.907-12.451 48.387-16.77 63.733-12.333l-37.621 18.811c-5.038 2.519-7.08 8.646-4.561 13.684a10.199 10.199 0 0 0 9.13 5.64 10.16 10.16 0 0 0 4.553-1.079l46.034-23.017c.129.256.276.496.399.758l2.904 6.226c5.031 10.791-2.737 19.075-11.008 22.933zM376.583 379.072H31.956c-5.633 0-10.199 4.566-10.199 10.199s4.566 10.199 10.199 10.199h344.627c5.633 0 10.199-4.566 10.199-10.199 0-5.632-4.566-10.199-10.199-10.199zm88.16 0h-36.638c-5.633 0-10.199 4.566-10.199 10.199s4.566 10.199 10.199 10.199h36.638c5.633 0 10.199-4.566 10.199-10.199 0-5.632-4.566-10.199-10.199-10.199zm-209.524 50.377H86.913c-5.633 0-10.199 4.566-10.199 10.199s4.566 10.199 10.199 10.199h168.305c5.633 0 10.199-4.566 10.199-10.199s-4.565-10.199-10.198-10.199z"/><path d="M87.202 154.149c-2.122-5.217-8.071-7.725-13.291-5.605l-67.552 27.48c-5.218 2.122-7.727 8.073-5.605 13.291a10.204 10.204 0 0 0 9.452 6.358c1.279 0 2.581-.243 3.84-.755l67.551-27.479c5.218-2.121 7.728-8.072 5.605-13.29z"/></svg>